<svg width="110" height="15" viewBox="0 0 110 15" fill="none" xmlns="http://www.w3.org/2000/svg">
<path d="M6.4688 14.1135H0.833693V1.24114H5.84268C6.71434 1.24114 7.46323 1.34549 8.08935 1.5542C8.72775 1.76291 9.20655 2.04528 9.52575 2.40131C10.1028 3.06426 10.3913 3.81316 10.3913 4.64799C10.3913 5.65469 10.0659 6.40359 9.41526 6.89466C9.19428 7.06654 9.04082 7.17703 8.95488 7.22614C8.86894 7.26297 8.71548 7.33049 8.49449 7.42871C9.29249 7.60059 9.92475 7.96276 10.3913 8.51522C10.8701 9.0554 11.1095 9.73063 11.1095 10.5409C11.1095 11.4371 10.8026 12.229 10.1887 12.9165C9.47665 13.7145 8.23668 14.1135 6.4688 14.1135ZM3.70649 6.45269H5.06923C5.86723 6.45269 6.45652 6.36676 6.83711 6.19488C7.22997 6.023 7.4264 5.65469 7.4264 5.08996C7.4264 4.51294 7.24839 4.13236 6.89235 3.9482C6.53632 3.76405 5.93475 3.67197 5.08765 3.67197H3.70649V6.45269ZM3.70649 11.6827H5.67694C6.49949 11.6827 7.11334 11.5844 7.51848 11.388C7.93589 11.1793 8.1446 10.7803 8.1446 10.191C8.1446 9.58945 7.92362 9.19659 7.48165 9.01243C7.05195 8.816 6.35831 8.71779 5.40071 8.71779H3.70649V11.6827ZM18.5423 6.63685C17.7197 6.63685 17.1059 6.93149 16.7008 7.52079C16.2956 8.0978 16.093 8.86511 16.093 9.82271V14.1135H13.3307V4.20602H16.093V5.51351C16.4491 5.10837 16.891 4.76462 17.419 4.48225C17.9591 4.19988 18.5055 4.05256 19.0579 4.04028L19.0763 6.63685H18.5423ZM29.3045 14.1135H26.708V12.9165C25.9959 13.8127 25.112 14.2608 24.0562 14.2608C23.0126 14.2608 22.1348 13.96 21.4228 13.3585C20.7107 12.7446 20.3547 11.9343 20.3547 10.9276C20.3547 9.90865 20.723 9.14748 21.4596 8.64413C22.1962 8.14077 23.2029 7.88909 24.4797 7.88909H26.5422V7.83385C26.5422 6.77803 25.9836 6.25013 24.8664 6.25013C24.3876 6.25013 23.8781 6.34834 23.338 6.54477C22.8101 6.72893 22.3619 6.96219 21.9936 7.24456L20.7598 5.45826C22.0612 4.51294 23.5467 4.04028 25.2163 4.04028C26.4195 4.04028 27.4016 4.34106 28.1628 4.94263C28.924 5.5442 29.3045 6.49566 29.3045 7.79702V14.1135ZM26.5238 10.3383V9.85954H24.7928C23.6879 9.85954 23.1354 10.2033 23.1354 10.8908C23.1354 11.2468 23.2643 11.5231 23.5221 11.7195C23.7922 11.9036 24.1728 11.9957 24.6639 11.9957C25.1549 11.9957 25.5846 11.8484 25.9529 11.5538C26.3335 11.2468 26.5238 10.8417 26.5238 10.3383ZM34.6619 8.58888V14.1135H31.8996V4.20602H34.6619V5.31094C35.4967 4.46383 36.4359 4.04028 37.4794 4.04028C38.523 4.04028 39.3946 4.40859 40.0944 5.1452C40.8065 5.88182 41.1625 6.86397 41.1625 8.09166V14.1135H38.4002V8.51522C38.4002 6.99288 37.8416 6.23171 36.7244 6.23171C36.172 6.23171 35.687 6.43428 35.2696 6.83942C34.8645 7.23228 34.6619 7.81543 34.6619 8.58888ZM47.697 14.2608C46.5307 14.2608 45.4872 13.7636 44.5664 12.7692C43.6456 11.7747 43.1852 10.5409 43.1852 9.06768C43.1852 7.59445 43.6333 6.39131 44.5296 5.45826C45.4258 4.51294 46.4755 4.04028 47.6786 4.04028C48.8817 4.04028 49.8639 4.46383 50.6251 5.31094V0.449279H53.3874V14.1135H50.6251V12.806C49.8516 13.7759 48.8756 14.2608 47.697 14.2608ZM45.966 9.17817C45.966 9.97617 46.2054 10.633 46.6842 11.1486C47.163 11.652 47.7216 11.9036 48.36 11.9036C48.9984 11.9036 49.5385 11.652 49.9805 11.1486C50.4348 10.633 50.6619 9.97617 50.6619 9.17817C50.6619 8.36789 50.4348 7.6988 49.9805 7.17089C49.5385 6.63071 48.9922 6.36062 48.3415 6.36062C47.6909 6.36062 47.1323 6.63071 46.6657 7.17089C46.1992 7.71108 45.966 8.38017 45.966 9.17817ZM65.3607 1.24114H68.2335V14.1135H65.3607L59.2284 6.04756V14.1135H56.3556V1.24114H59.0442L65.3607 9.52806V1.24114ZM79.6243 14.1135H77.0278V12.9165C76.3157 13.8127 75.4318 14.2608 74.376 14.2608C73.3324 14.2608 72.4546 13.96 71.7426 13.3585C71.0305 12.7446 70.6745 11.9343 70.6745 10.9276C70.6745 9.90865 71.0428 9.14748 71.7794 8.64413C72.516 8.14077 73.5227 7.88909 74.7995 7.88909H76.862V7.83385C76.862 6.77803 76.3034 6.25013 75.1862 6.25013C74.7074 6.25013 74.1979 6.34834 73.6578 6.54477C73.1299 6.72893 72.6817 6.96219 72.3134 7.24456L71.0796 5.45826C72.381 4.51294 73.8665 4.04028 75.5361 4.04028C76.7393 4.04028 77.7214 4.34106 78.4826 4.94263C79.2438 5.5442 79.6243 6.49566 79.6243 7.79702V14.1135ZM76.8436 10.3383V9.85954H75.1126C74.0077 9.85954 73.4552 10.2033 73.4552 10.8908C73.4552 11.2468 73.5841 11.5231 73.8419 11.7195C74.112 11.9036 74.4926 11.9957 74.9837 11.9957C75.4747 11.9957 75.9044 11.8484 76.2727 11.5538C76.6533 11.2468 76.8436 10.8417 76.8436 10.3383ZM91.3166 8.77303V14.1135H88.5359V8.69937C88.5359 7.91365 88.4131 7.33663 88.1675 6.96833C87.9343 6.60002 87.5476 6.41586 87.0074 6.41586C86.4795 6.41586 86.0068 6.61843 85.5894 7.02357C85.1843 7.41643 84.9817 7.99959 84.9817 8.77303V14.1135H82.2194V4.20602H84.9817V5.32936C85.7429 4.46997 86.6145 4.04028 87.5967 4.04028C88.2228 4.04028 88.7875 4.22443 89.2909 4.59274C89.8065 4.96105 90.1932 5.40916 90.4511 5.93706C90.8316 5.33549 91.3411 4.86897 91.9795 4.53749C92.6302 4.20602 93.2809 4.04028 93.9316 4.04028C95.0979 4.04028 96.0371 4.39017 96.7491 5.08996C97.4612 5.77746 97.8172 6.77803 97.8172 8.09166V14.1135H95.0365V8.69937C95.0365 7.17703 94.4779 6.41586 93.3607 6.41586C92.8082 6.41586 92.3294 6.61843 91.9243 7.02357C91.5191 7.41643 91.3166 7.99959 91.3166 8.77303ZM108.987 12.6771C107.87 13.7329 106.557 14.2608 105.046 14.2608C103.549 14.2608 102.309 13.8004 101.327 12.8797C100.344 11.9466 99.8533 10.7005 99.8533 9.14134C99.8533 7.58217 100.351 6.3422 101.345 5.42143C102.352 4.50066 103.536 4.04028 104.899 4.04028C106.262 4.04028 107.416 4.45156 108.361 5.27411C109.319 6.09666 109.798 7.22614 109.798 8.66254V10.1358H102.579C102.665 10.676 102.947 11.1179 103.426 11.4617C103.905 11.8054 104.445 11.9773 105.046 11.9773C106.016 11.9773 106.814 11.652 107.44 11.0013L108.987 12.6771ZM106.998 8.16533C106.937 7.57603 106.716 7.12179 106.336 6.80259C105.955 6.48339 105.488 6.32379 104.936 6.32379C104.396 6.32379 103.899 6.48953 103.444 6.821C102.99 7.15248 102.726 7.60059 102.652 8.16533H106.998Z" fill="white"/>
</svg>
